<?xml version="1.0" encoding="UTF-8" standalone="no"?>
<svg
   width="900.01501"
   height="900"
   viewBox="0 0 900.01501 900"
   version="1.1"
   xml:space="preserve"
   id="SVGRoot"
   xmlns="http://www.w3.org/2000/svg"
   xmlns:svg="http://www.w3.org/2000/svg"><defs
   id="defs2" />

<style
   type="text/css"
   id="style1">
g.prefab path {
  vector-effect:non-scaling-stroke;
  -inkscape-stroke:hairline;
  fill: none;
  fill-opacity: 1;
  stroke-opacity: 1;
  stroke: #00349c;
}
</style>
<g
   id="layer1"
   transform="translate(0.01498617)"><path
     style="fill:#000000;fill-opacity:1;stroke-width:80.6349"
     id="rect5"
     width="900"
     height="900"
     x="0"
     y="0"
     d="M 50.706684,0 H 849.29332 C 877.38482,0 900,22.615181 900,50.706684 V 849.29332 C 900,877.38482 877.38482,900 849.29332,900 H 50.706684 C 22.615181,900 0,877.38482 0,849.29332 V 50.706684 C 0,22.615181 22.615181,0 50.706684,0 Z"
     ry="50.706684" /><path
     id="path3"
     style="fill:#ffffff;fill-opacity:1;stroke-width:90.3333"
     d="m 631.21278,229.33548 c -104.71919,0.26811 -194.9201,74.06693 -216.1647,176.85743 H 0.78191438 l -0.79690055,89.02018 H 414.8304 c 20.84808,103.26929 111.2748,177.59774 216.38238,177.86078 122.23875,1.6e-4 221.33289,-99.33414 221.33281,-221.8692 8e-5,-122.53506 -99.09407,-221.86935 -221.33281,-221.86919 z m 0,110.93362 c 61.11975,-8e-5 110.66697,49.66766 110.6664,110.93557 -5e-4,61.26715 -49.54741,110.9337 -110.6664,110.93362 -61.11899,8e-5 -110.66591,-49.66647 -110.66641,-110.93362 -5.7e-4,-61.26791 49.54666,-110.93565 110.66641,-110.93557 z" /></g>
</svg>
